<svg xmlns="http://www.w3.org/2000/svg" viewBox="0 0 32 32" fill="none">
  <rect width="32" height="32" rx="8" fill="#2563EB"/>
  <path d="M16 6a2 2 0 0 1 2 2v1.17a7 7 0 0 1 2.12.88l.83-.83a2 2 0 1 1 2.83 2.83l-.83.83A7 7 0 0 1 23.83 15H25a2 2 0 1 1 0 4h-1.17a7 7 0 0 1-.88 2.12l.83.83a2 2 0 1 1-2.83 2.83l-.83-.83A7 7 0 0 1 18 24.83V26a2 2 0 1 1-4 0v-1.17a7 7 0 0 1-2.12-.88l-.83.83a2 2 0 1 1-2.83-2.83l.83-.83A7 7 0 0 1 8.17 19H7a2 2 0 1 1 0-4h1.17a7 7 0 0 1 .88-2.12l-.83-.83a2 2 0 1 1 2.83-2.83l.83.83A7 7 0 0 1 14 9.17V8a2 2 0 0 1 2-2zm0 7a3 3 0 1 0 0 6 3 3 0 0 0 0-6z" fill="white"/>
</svg>
